<svg width="71" height="70" viewBox="0 0 71 70" fill="none" xmlns="http://www.w3.org/2000/svg">
<path d="M7.06348 67.8125C7.06321 61.7996 8.96809 55.9413 12.5047 51.0784C16.0412 46.2156 21.0276 42.5983 26.7481 40.7458L35.4981 48.125L44.2481 40.7458C49.9696 42.5973 54.9572 46.2141 58.4949 51.0771C62.0326 55.94 63.9383 61.7989 63.9385 67.8125" stroke="#0C9548" stroke-width="2" stroke-linecap="round" stroke-linejoin="round"/>
<path d="M52.0001 44.6425C49.6338 42.9545 47.022 41.6402 44.2563 40.7458L35.5063 48.125L45.423 60.0104L52.0001 44.6425Z" stroke="#0C9548" stroke-width="2" stroke-linecap="round" stroke-linejoin="round"/>
<path d="M35.5006 48.125L26.7506 40.7458C23.9863 41.6415 21.3757 42.9556 19.0098 44.6425L25.5956 60.0104L35.5006 48.125Z" stroke="#0C9548" stroke-width="2" stroke-linecap="round" stroke-linejoin="round"/>
<path d="M42.0635 67.8126L45.406 60.0105" stroke="#0C9548" stroke-width="2" stroke-linecap="round" stroke-linejoin="round"/>
<path d="M25.5928 60.0105L28.9382 67.8126" stroke="#0C9548" stroke-width="2" stroke-linecap="round" stroke-linejoin="round"/>
<path d="M20.1885 17.5C20.1885 21.5611 21.8018 25.4559 24.6734 28.3276C27.5451 31.1992 31.4398 32.8125 35.501 32.8125C39.5621 32.8125 43.4569 31.1992 46.3285 28.3276C49.2002 25.4559 50.8135 21.5611 50.8135 17.5C50.8135 13.4389 49.2002 9.54408 46.3285 6.67243C43.4569 3.80078 39.5621 2.1875 35.501 2.1875C31.4398 2.1875 27.5451 3.80078 24.6734 6.67243C21.8018 9.54408 20.1885 13.4389 20.1885 17.5Z" stroke="#0C9548" stroke-width="2" stroke-linecap="round" stroke-linejoin="round"/>
<path d="M22.3057 9.72412C24.6764 12.1839 27.5188 14.1403 30.663 15.4764C33.8072 16.8125 37.1886 17.5007 40.6048 17.5C44.0669 17.5017 47.4929 16.7971 50.6732 15.4291" stroke="#0C9548" stroke-width="2" stroke-linecap="round" stroke-linejoin="round"/>
</svg>
