<svg width="71" height="70" viewBox="0 0 71 70" fill="none" xmlns="http://www.w3.org/2000/svg">
<path d="M55.0205 35C55.0205 34.4198 54.79 33.8634 54.3798 33.4532C53.9696 33.043 53.4132 32.8125 52.833 32.8125H17.833C17.2528 32.8125 16.6964 33.043 16.2862 33.4532C15.876 33.8634 15.6455 34.4198 15.6455 35" stroke="#0C9548" stroke-width="2" stroke-linecap="round" stroke-linejoin="round"/>
<path d="M5.80176 51.4063C5.80176 52.4117 5.99979 53.4073 6.38456 54.3362C6.76932 55.2651 7.33327 56.1091 8.04422 56.82C8.75517 57.531 9.59919 58.0949 10.5281 58.4797C11.457 58.8645 12.4526 59.0625 13.458 59.0625C14.4634 59.0625 15.459 58.8645 16.3879 58.4797C17.3168 58.0949 18.1608 57.531 18.8718 56.82C19.5827 56.1091 20.1467 55.2651 20.5315 54.3362C20.9162 53.4073 21.1143 52.4117 21.1143 51.4063C21.1143 50.4008 20.9162 49.4052 20.5315 48.4763C20.1467 47.5474 19.5827 46.7034 18.8718 45.9925C18.1608 45.2815 17.3168 44.7176 16.3879 44.3328C15.459 43.948 14.4634 43.75 13.458 43.75C12.4526 43.75 11.457 43.948 10.5281 44.3328C9.59919 44.7176 8.75517 45.2815 8.04422 45.9925C7.33327 46.7034 6.76932 47.5474 6.38456 48.4763C5.99979 49.4052 5.80176 50.4008 5.80176 51.4063Z" stroke="#0C9548" stroke-width="2" stroke-linecap="round" stroke-linejoin="round"/>
<path d="M24.3955 67.8125C23.3383 65.8301 21.7621 64.1724 19.8356 63.0165C17.9091 61.8606 15.7047 61.25 13.458 61.25C11.2113 61.25 9.00691 61.8606 7.0804 63.0165C5.1539 64.1724 3.57776 65.8301 2.52051 67.8125" stroke="#0C9548" stroke-width="2" stroke-linecap="round" stroke-linejoin="round"/>
<path d="M49.5518 51.4063C49.5518 53.4368 50.3584 55.3842 51.7942 56.82C53.23 58.2559 55.1774 59.0625 57.208 59.0625C59.2386 59.0625 61.186 58.2559 62.6218 56.82C64.0576 55.3842 64.8643 53.4368 64.8643 51.4063C64.8643 49.3757 64.0576 47.4283 62.6218 45.9925C61.186 44.5566 59.2386 43.75 57.208 43.75C55.1774 43.75 53.23 44.5566 51.7942 45.9925C50.3584 47.4283 49.5518 49.3757 49.5518 51.4063Z" stroke="#0C9548" stroke-width="2" stroke-linecap="round" stroke-linejoin="round"/>
<path d="M68.1455 67.8125C67.0883 65.8301 65.5121 64.1724 63.5856 63.0165C61.6591 61.8606 59.4547 61.25 57.208 61.25C54.9613 61.25 52.7569 61.8606 50.8304 63.0165C48.9039 64.1724 47.3278 65.8301 46.2705 67.8125" stroke="#0C9548" stroke-width="2" stroke-linecap="round" stroke-linejoin="round"/>
<path d="M27.6768 9.84375C27.6768 11.8743 28.4834 13.8217 29.9192 15.2575C31.355 16.6934 33.3024 17.5 35.333 17.5C37.3636 17.5 39.311 16.6934 40.7468 15.2575C42.1826 13.8217 42.9893 11.8743 42.9893 9.84375C42.9893 7.81319 42.1826 5.86579 40.7468 4.42996C39.311 2.99414 37.3636 2.1875 35.333 2.1875C33.3024 2.1875 31.355 2.99414 29.9192 4.42996C28.4834 5.86579 27.6768 7.81319 27.6768 9.84375Z" stroke="#0C9548" stroke-width="2" stroke-linecap="round" stroke-linejoin="round"/>
<path d="M44.8089 24.0625C43.64 22.69 42.187 21.5878 40.5504 20.8319C38.9138 20.076 37.1325 19.6846 35.3298 19.6846C33.527 19.6846 31.7457 20.076 30.1091 20.8319C28.4725 21.5878 27.0195 22.69 25.8506 24.0625" stroke="#0C9548" stroke-width="2" stroke-linecap="round" stroke-linejoin="round"/>
</svg>
