<svg width="70" height="70" viewBox="0 0 70 70" fill="none" xmlns="http://www.w3.org/2000/svg">
<path d="M8.75 10.9375C8.75 13.2581 9.67187 15.4837 11.3128 17.1247C12.9538 18.7656 15.1794 19.6875 17.5 19.6875C19.8206 19.6875 22.0462 18.7656 23.6872 17.1247C25.3281 15.4837 26.25 13.2581 26.25 10.9375C26.25 8.61686 25.3281 6.39126 23.6872 4.75032C22.0462 3.10937 19.8206 2.1875 17.5 2.1875C15.1794 2.1875 12.9538 3.10937 11.3128 4.75032C9.67187 6.39126 8.75 8.61686 8.75 10.9375Z" stroke="#0C9548" stroke-width="2" stroke-linecap="round" stroke-linejoin="round"/>
<path d="M30.7854 31.7566C29.1056 28.8303 26.5064 26.5406 23.3917 25.2433C20.2769 23.9459 16.8209 23.7135 13.5605 24.582C10.3 25.4506 7.41766 27.3716 5.36111 30.0465C3.30455 32.7215 2.18892 36.0008 2.1875 39.3749V45.9374H8.75L10.9375 67.8124H24.0625L25.0046 58.3828" stroke="#0C9548" stroke-width="2" stroke-linecap="round" stroke-linejoin="round"/>
<path d="M67.8125 50.3125C67.8125 53.7737 66.7861 57.1571 64.8632 60.035C62.9403 62.9128 60.2072 65.1559 57.0095 66.4804C53.8118 67.8049 50.2931 68.1515 46.8984 67.4762C43.5038 66.801 40.3856 65.1343 37.9381 62.6869C35.4907 60.2395 33.824 57.1212 33.1488 53.7266C32.4735 50.3319 32.8201 46.8132 34.1446 43.6155C35.4691 40.4178 37.7122 37.6847 40.59 35.7618C43.4679 33.8389 46.8513 32.8125 50.3125 32.8125" stroke="#0C9548" stroke-width="2" stroke-linecap="round" stroke-linejoin="round"/>
<path d="M67.8125 37.1846L51.8583 53.1387C51.6554 53.3419 51.4145 53.5031 51.1492 53.6131C50.884 53.7231 50.5996 53.7797 50.3125 53.7797C50.0254 53.7797 49.741 53.7231 49.4758 53.6131C49.2105 53.5031 48.9696 53.3419 48.7667 53.1387L43.75 48.125" stroke="#0C9548" stroke-width="2" stroke-linecap="round" stroke-linejoin="round"/>
<path d="M40.4688 9.84375C40.4688 11.8743 41.2754 13.8217 42.7112 15.2575C44.147 16.6934 46.0944 17.5 48.125 17.5C50.1556 17.5 52.103 16.6934 53.5388 15.2575C54.9746 13.8217 55.7813 11.8743 55.7813 9.84375C55.7813 7.81319 54.9746 5.86579 53.5388 4.42996C52.103 2.99414 50.1556 2.1875 48.125 2.1875C46.0944 2.1875 44.147 2.99414 42.7112 4.42996C41.2754 5.86579 40.4688 7.81319 40.4688 9.84375Z" stroke="#0C9548" stroke-width="2" stroke-linecap="round" stroke-linejoin="round"/>
<path d="M59.4999 26.25C58.4557 24.4425 56.9954 22.9102 55.2403 21.7802C53.4852 20.6502 51.4858 19.9551 49.4082 19.7526C47.3307 19.5501 45.2347 19.8461 43.2945 20.6159C41.3542 21.3858 39.6255 22.6074 38.252 24.1792" stroke="#0C9548" stroke-width="2" stroke-linecap="round" stroke-linejoin="round"/>
</svg>
