<svg width="70" height="70" viewBox="0 0 70 70" fill="none" xmlns="http://www.w3.org/2000/svg">
<path d="M32.8125 50.3125C32.8125 54.9538 34.6562 59.405 37.9381 62.6869C41.22 65.9688 45.6712 67.8125 50.3125 67.8125C54.9538 67.8125 59.405 65.9688 62.6869 62.6869C65.9688 59.405 67.8125 54.9538 67.8125 50.3125C67.8125 45.6712 65.9688 41.22 62.6869 37.9381C59.405 34.6562 54.9538 32.8125 50.3125 32.8125C45.6712 32.8125 41.22 34.6562 37.9381 37.9381C34.6562 41.22 32.8125 45.6712 32.8125 50.3125Z" stroke="white" stroke-linecap="round" stroke-linejoin="round"/>
<path d="M58.1115 45.2258L49.6386 56.5221C49.4501 56.7724 49.2102 56.9795 48.9349 57.1293C48.6597 57.2792 48.3555 57.3683 48.043 57.3907C47.7304 57.4131 47.4166 57.3682 47.1229 57.2591C46.8291 57.15 46.5621 56.9793 46.3398 56.7583L41.9648 52.3833" stroke="white" stroke-linecap="round" stroke-linejoin="round"/>
<path d="M10.9375 19.6875H41.5625" stroke="white" stroke-linecap="round" stroke-linejoin="round"/>
<path d="M10.9375 32.8125H28.4375" stroke="white" stroke-linecap="round" stroke-linejoin="round"/>
<path d="M10.9375 45.9375H21.875" stroke="white" stroke-linecap="round" stroke-linejoin="round"/>
<path d="M21.875 59.0625H6.5625C5.40218 59.0625 4.28938 58.6016 3.46891 57.7811C2.64844 56.9606 2.1875 55.8478 2.1875 54.6875V6.5625C2.1875 5.40218 2.64844 4.28938 3.46891 3.46891C4.28938 2.64844 5.40218 2.1875 6.5625 2.1875H37.5638C38.7233 2.18775 39.8353 2.64828 40.6554 3.46792L49.0321 11.8446C49.8517 12.6647 50.3123 13.7767 50.3125 14.9362V21.875" stroke="white" stroke-linecap="round" stroke-linejoin="round"/>
</svg>
