<svg width="71" height="70" viewBox="0 0 71 70" fill="none" xmlns="http://www.w3.org/2000/svg">
<path d="M60.2947 33.5417V24.7917C60.2877 22.4732 59.3637 20.2517 57.7243 18.6122C56.0848 16.9728 53.8632 16.0487 51.5447 16.0417H10.7114" stroke="white" stroke-linecap="round" stroke-linejoin="round"/>
<path d="M45.7111 10.2083H10.7111C9.93754 10.2083 9.19569 10.5156 8.6487 11.0625C8.1017 11.6095 7.79443 12.3514 7.79443 13.1249C7.79443 13.8985 8.1017 14.6403 8.6487 15.1873C9.19569 15.7343 9.93754 16.0416 10.7111 16.0416" stroke="white" stroke-linecap="round" stroke-linejoin="round"/>
<path d="M60.2947 48.125V56.875C60.2877 59.1935 59.3637 61.4151 57.7243 63.0545C56.0848 64.694 53.8632 65.618 51.5447 65.625H10.7114C8.39292 65.618 6.17132 64.694 4.53189 63.0545C2.89245 61.4151 1.96835 59.1935 1.96143 56.875V13.125C1.96835 10.8065 2.89245 8.58492 4.53189 6.94546C6.17132 5.30603 8.39292 4.38191 10.7114 4.375H45.7114C50.5239 4.375 54.4614 7 54.4614 10.2083V16.5433" stroke="white" stroke-linecap="round" stroke-linejoin="round"/>
<path d="M13.6221 56.875H16.5387" stroke="white" stroke-linecap="round" stroke-linejoin="round"/>
<path d="M22.3721 56.875H28.2054" stroke="white" stroke-linecap="round" stroke-linejoin="round"/>
<path d="M34.0386 56.875H39.8719" stroke="white" stroke-linecap="round" stroke-linejoin="round"/>
<path d="M45.7056 56.875H51.5389" stroke="white" stroke-linecap="round" stroke-linejoin="round"/>
<path d="M13.6221 24.7917H16.5387" stroke="white" stroke-linecap="round" stroke-linejoin="round"/>
<path d="M22.3721 24.7917H28.2054" stroke="white" stroke-linecap="round" stroke-linejoin="round"/>
<path d="M34.0386 24.7917H39.8719" stroke="white" stroke-linecap="round" stroke-linejoin="round"/>
<path d="M45.7056 24.7917H51.5389" stroke="white" stroke-linecap="round" stroke-linejoin="round"/>
<path d="M63.2052 33.5417H48.6219C45.4002 33.5417 42.7886 36.1533 42.7886 39.3751V42.2917C42.7886 45.5135 45.4002 48.1251 48.6219 48.1251H63.2052C66.427 48.1251 69.0386 45.5135 69.0386 42.2917V39.3751C69.0386 36.1533 66.427 33.5417 63.2052 33.5417Z" stroke="white" stroke-linecap="round" stroke-linejoin="round"/>
<path d="M50.0861 41.5626C49.6833 41.5626 49.3569 41.2362 49.3569 40.8334C49.3569 40.4306 49.6833 40.1042 50.0861 40.1042" stroke="white"/>
<path d="M50.0864 41.5626C50.4892 41.5626 50.8156 41.2362 50.8156 40.8334C50.8156 40.4306 50.4892 40.1042 50.0864 40.1042" stroke="white"/>
</svg>
