<svg width="71" height="70" viewBox="0 0 71 70" fill="none" xmlns="http://www.w3.org/2000/svg">
<path d="M13.625 52.5H11.4375C9.11685 52.5 6.89126 51.578 5.25032 49.9371C3.60937 48.2962 2.6875 46.0705 2.6875 43.75V35C2.6875 32.6795 3.60937 30.4538 5.25032 28.8128C6.89126 27.1719 9.11685 26.25 11.4375 26.25H13.625C14.2052 26.25 14.7616 26.4805 15.1718 26.8907C15.582 27.3009 15.8125 27.8573 15.8125 28.4375V50.3125C15.8125 50.8926 15.582 51.4491 15.1718 51.8592C14.7616 52.2696 14.2052 52.5 13.625 52.5Z" stroke="white" stroke-linecap="round" stroke-linejoin="round"/>
<path d="M59.5625 52.5H57.375C56.7949 52.5 56.2384 52.2696 55.8283 51.8592C55.4179 51.4491 55.1875 50.8926 55.1875 50.3125V28.4375C55.1875 27.8573 55.4179 27.3009 55.8283 26.8907C56.2384 26.4805 56.7949 26.25 57.375 26.25H59.5625C61.883 26.25 64.1087 27.1719 65.7496 28.8128C67.3905 30.4538 68.3125 32.6795 68.3125 35V43.75C68.3125 46.0705 67.3905 48.2962 65.7496 49.9371C64.1087 51.578 61.883 52.5 59.5625 52.5Z" stroke="white" stroke-linecap="round" stroke-linejoin="round"/>
<path d="M11.4375 26.25C11.4375 19.8682 13.9726 13.7478 18.4852 9.23525C22.9978 4.72264 29.1182 2.1875 35.5 2.1875C41.8817 2.1875 48.0023 4.72264 52.5147 9.23525C57.0273 13.7478 59.5625 19.8682 59.5625 26.25" stroke="white" stroke-linecap="round" stroke-linejoin="round"/>
<path d="M44.25 63.4375H50.8125C53.133 63.4375 55.3587 62.5155 56.9996 60.8746C58.6405 59.2337 59.5625 57.008 59.5625 54.6875V52.5" stroke="white" stroke-linecap="round" stroke-linejoin="round"/>
<path d="M39.875 67.8125H35.5C34.3398 67.8125 33.2267 67.3517 32.4063 66.5312C31.5858 65.7107 31.125 64.5978 31.125 63.4375C31.125 62.2773 31.5858 61.1643 32.4063 60.3438C33.2267 59.5233 34.3398 59.0625 35.5 59.0625H39.875C41.0353 59.0625 42.1483 59.5233 42.9687 60.3438C43.7892 61.1643 44.25 62.2773 44.25 63.4375C44.25 64.5978 43.7892 65.7107 42.9687 66.5312C42.1483 67.3517 41.0353 67.8125 39.875 67.8125Z" stroke="white" stroke-linecap="round" stroke-linejoin="round"/>
<path d="M26.75 24.0625C26.7503 22.4585 27.1916 20.8853 28.0255 19.5151C28.8595 18.1448 30.054 17.0302 31.4788 16.293C32.9033 15.5558 34.5034 15.2244 36.1035 15.3351C37.7038 15.4457 39.243 15.9941 40.5525 16.9204C41.8621 17.8466 42.892 19.115 43.5293 20.587C44.1669 22.059 44.3874 23.6779 44.1669 25.2667C43.9464 26.8556 43.2936 28.3533 42.2795 29.5962C41.2654 30.839 39.929 31.7791 38.4167 32.3137C37.5632 32.6156 36.8245 33.1744 36.3021 33.9135C35.7797 34.6528 35.4994 35.5357 35.5 36.4408V37.1874" stroke="white" stroke-linecap="round" stroke-linejoin="round"/>
<path d="M35.5 48.125C34.896 48.125 34.4062 47.6353 34.4062 47.0313C34.4062 46.4272 34.896 45.9375 35.5 45.9375" stroke="white"/>
<path d="M35.5 48.125C36.104 48.125 36.5938 47.6353 36.5938 47.0313C36.5938 46.4272 36.104 45.9375 35.5 45.9375" stroke="white"/>
</svg>
