<svg width="70" height="70" viewBox="0 0 70 70" fill="none" xmlns="http://www.w3.org/2000/svg">
<path d="M49.5837 30.6251C49.5837 33.5094 48.7284 36.3289 47.1259 38.7271C45.5235 41.1254 43.2459 42.9945 40.5811 44.0983C37.9164 45.2021 34.9842 45.4909 32.1553 44.9282C29.3264 44.3655 26.7279 42.9766 24.6884 40.9371C22.6488 38.8975 21.2599 36.299 20.6972 33.4701C20.1345 30.6413 20.4233 27.709 21.5271 25.0443C22.6309 22.3795 24.5 20.1019 26.8983 18.4995C29.2965 16.897 32.116 16.0417 35.0003 16.0417" stroke="white" stroke-linecap="round" stroke-linejoin="round"/>
<path d="M29.167 29.1667L33.892 32.7105C34.1911 32.9347 34.5648 33.0355 34.9361 32.992C35.3073 32.9486 35.6477 32.7643 35.887 32.4772L49.5837 16.0417" stroke="white" stroke-linecap="round" stroke-linejoin="round"/>
<path d="M4.375 11.0104V33.2849C4.4607 40.6451 6.80627 47.8011 11.0941 53.7839C15.3819 59.7667 21.4048 64.2872 28.3471 66.7333L31.6167 67.9408C33.8009 68.7429 36.1991 68.7429 38.3833 67.9408L41.6529 66.7333C48.5952 64.2872 54.6181 59.7667 58.9059 53.7839C63.1937 47.8011 65.5393 40.6451 65.625 33.2849V11.0104C65.6221 10.1352 65.3624 9.28019 64.8781 8.55124C64.3939 7.82229 63.7064 7.25146 62.9008 6.90952C54.0656 3.22185 44.5735 1.36727 35 1.45827C25.4265 1.36727 15.9344 3.22185 7.09917 6.90952C6.2936 7.25146 5.60609 7.82229 5.12185 8.55124C4.63761 9.28019 4.37793 10.1352 4.375 11.0104Z" stroke="white" stroke-linecap="round" stroke-linejoin="round"/>
</svg>
