<svg width="18" height="19" viewBox="0 0 18 19" fill="none" xmlns="http://www.w3.org/2000/svg">
<path d="M10.7307 12.1659L10.1303 12.7665C9.96989 12.9271 9.73085 12.98 9.51774 12.9019C8.9206 12.6822 8.17356 12.1246 7.27662 11.2273C6.3805 10.3308 5.82224 9.58353 5.60348 8.98536C5.52521 8.77233 5.57769 8.53322 5.73798 8.37259L6.33918 7.77198C7.44677 6.66398 7.54805 4.91889 6.57171 3.76063L5.86681 2.92254C5.06224 1.9653 3.61272 1.86884 2.62828 2.70613C2.26216 3.02175 1.98693 3.42944 1.83101 3.88708C1.76362 4.08629 1.72011 4.2928 1.70137 4.50228C1.34081 7.17948 2.63152 9.98961 5.57269 12.9319C8.51386 15.8741 11.3221 17.1645 13.9992 16.8038C14.6947 16.7374 15.3378 16.4053 15.7947 15.8765C16.6324 14.8925 16.5352 13.4417 15.5791 12.6368L14.7414 11.9308C13.5819 10.9558 11.8383 11.0579 10.7307 12.1659ZM8.43337 10.0703C8.8618 10.4989 9.23543 10.824 9.53747 11.0454C11.2741 9.30811 13.9764 9.14977 15.7953 10.6794L16.6325 11.3849C18.2922 12.7821 18.4582 15.2718 17.0322 16.9466C16.3 17.794 15.2693 18.3263 14.2175 18.4254C10.9605 18.8643 7.68513 17.3592 4.41594 14.0888C1.14668 10.8184 -0.358481 7.54107 0.0720583 4.35646C0.102326 4.01807 0.172624 3.68446 0.282635 3.35925C0.532507 2.62583 0.973607 1.97246 1.56865 1.45954C3.23495 0.0423217 5.72266 0.208344 7.11855 1.86912L7.82231 2.70586C9.35355 4.52241 9.19668 7.22759 7.49514 8.92975C7.67994 9.26797 8.00476 9.64155 8.43337 10.0703Z" fill="white"/>
</svg>
