<svg width="18" height="19" viewBox="0 0 18 19" fill="none" xmlns="http://www.w3.org/2000/svg">
<path d="M8.63091 18.5C6.88958 18.5 5.36972 18.148 4.07129 17.4438C2.77286 16.7397 1.76972 15.7404 1.06183 14.4457C0.35394 13.1511 0 11.6407 0 9.91451V9.28991C0 7.57128 0.369081 6.04575 1.10726 4.71325C1.84543 3.38075 2.88264 2.34543 4.21893 1.60726C5.55521 0.869081 7.08264 0.5 8.80126 0.5H8.89211C10.4972 0.5 11.9337 0.831227 13.2019 1.49369C14.47 2.15615 15.4618 3.07223 16.1773 4.24196C16.8927 5.41168 17.2505 6.73848 17.2505 8.2224V8.79022C17.2505 9.80474 17.0839 10.7019 16.7508 11.4817C16.4177 12.2615 15.9521 12.8691 15.3539 13.3044C14.7558 13.7397 14.0669 13.9574 13.2871 13.9574C12.583 13.9574 11.9773 13.8098 11.47 13.5145C10.9628 13.2192 10.6599 12.8331 10.5615 12.3562H10.4479C10.3647 12.6514 10.1981 12.9221 9.94827 13.1681C9.69842 13.4142 9.39369 13.6073 9.03407 13.7473C8.67445 13.8874 8.29779 13.9574 7.9041 13.9574C7.28328 13.9574 6.74196 13.806 6.28013 13.5032C5.81829 13.2003 5.46246 12.7688 5.21262 12.2085C4.96277 11.6483 4.83785 10.9858 4.83785 10.2211V9.08549C4.83785 8.34353 4.96467 7.69622 5.2183 7.14353C5.47193 6.59085 5.83533 6.16688 6.30852 5.87161C6.78171 5.57634 7.33627 5.42871 7.97224 5.42871C8.53249 5.42871 9.0246 5.56688 9.44858 5.84322C9.87256 6.11956 10.1527 6.48107 10.289 6.92776H10.3798V6.63249C10.3798 6.32965 10.4631 6.08928 10.6297 5.91136C10.7962 5.73344 11.0233 5.64448 11.311 5.64448C11.5912 5.64448 11.8145 5.73344 11.9811 5.91136C12.1476 6.08928 12.2309 6.32965 12.2309 6.63249V11.1751C12.2309 11.5612 12.3483 11.8697 12.583 12.1006C12.8177 12.3315 13.1243 12.447 13.5028 12.447C13.9041 12.447 14.2562 12.2918 14.559 11.9814C14.8618 11.671 15.0946 11.23 15.2574 10.6584C15.4202 10.0867 15.5016 9.41862 15.5016 8.65394V8.27918C15.5016 7.09053 15.2196 6.02682 14.6555 5.08801C14.0915 4.14921 13.3079 3.41483 12.3047 2.88486C11.3016 2.35489 10.164 2.08991 8.89211 2.08991H8.80126C7.42334 2.08991 6.20442 2.39274 5.14448 2.99842C4.08454 3.6041 3.2612 4.45772 2.67445 5.55931C2.08769 6.66089 1.79432 7.92712 1.79432 9.35804V9.84637C1.79432 11.2697 2.07823 12.517 2.64606 13.5883C3.21388 14.6596 4.01829 15.4849 5.05931 16.064C6.10032 16.6432 7.31356 16.9328 8.69905 16.9328H8.78991C9.30473 16.9328 9.94448 16.876 10.7091 16.7625C11.1104 16.7095 11.3716 16.683 11.4927 16.683C11.7123 16.683 11.894 16.7492 12.0379 16.8817C12.1817 17.0142 12.2536 17.1826 12.2536 17.3871C12.2536 17.5915 12.1931 17.7656 12.0719 17.9095C11.9508 18.0533 11.7767 18.1555 11.5495 18.2161C10.8151 18.4054 9.87635 18.5 8.73312 18.5H8.63091ZM6.81388 9.95994C6.81388 10.7246 6.95962 11.3057 7.2511 11.7032C7.54259 12.1006 7.97224 12.2994 8.54006 12.2994C9.10032 12.2994 9.52807 12.1082 9.82334 11.7259C10.1186 11.3435 10.2662 10.789 10.2662 10.0621V9.14227C10.2662 8.47602 10.1091 7.94984 9.79495 7.56372C9.48076 7.1776 9.05489 6.98454 8.51735 6.98454C7.97981 6.98454 7.56152 7.18706 7.26246 7.59211C6.96341 7.99716 6.81388 8.56309 6.81388 9.28991V9.95994Z" fill="white"/>
</svg>
