<svg width="50" height="50" viewBox="0 0 50 50" fill="none" xmlns="http://www.w3.org/2000/svg">
<rect width="50" height="50" rx="6" fill="white"/>
<path d="M33.8939 29.5998C33.8697 29.5476 33.8471 29.5043 33.8262 29.4697C33.4792 28.8447 32.8161 28.0776 31.8372 27.1682L31.8166 27.1474L31.8062 27.1371L31.7957 27.1267H31.7852C31.341 26.7032 31.0597 26.4184 30.9419 26.2727C30.7263 25.995 30.678 25.7139 30.7959 25.4291C30.8791 25.2139 31.1917 24.7594 31.733 24.0651C32.0178 23.6971 32.2433 23.4022 32.4098 23.18C33.6109 21.5833 34.1316 20.5629 33.9719 20.1186L33.9098 20.0147C33.8681 19.9522 33.7606 19.895 33.5872 19.8429C33.4134 19.7908 33.1914 19.7822 32.9206 19.8169L29.9216 19.8376C29.8731 19.8204 29.8037 19.822 29.7133 19.8429C29.623 19.8637 29.5779 19.8742 29.5779 19.8742L29.5257 19.9003L29.4843 19.9316C29.4495 19.9523 29.4114 19.9888 29.3697 20.0408C29.3282 20.0927 29.2935 20.1537 29.2658 20.2231C28.9393 21.0631 28.5681 21.844 28.1515 22.566C27.8946 22.9965 27.6587 23.3695 27.4432 23.6854C27.2281 24.0012 27.0476 24.2339 26.9019 24.383C26.756 24.5323 26.6244 24.6519 26.5061 24.7422C26.388 24.8326 26.2979 24.8708 26.2355 24.8568C26.173 24.8428 26.1141 24.829 26.0583 24.8151C25.9612 24.7526 25.883 24.6676 25.8241 24.56C25.765 24.4524 25.7252 24.317 25.7043 24.1538C25.6836 23.9906 25.6714 23.8502 25.6679 23.7321C25.6646 23.6142 25.6661 23.4474 25.6732 23.2322C25.6804 23.0169 25.6836 22.8712 25.6836 22.7949C25.6836 22.531 25.6888 22.2447 25.6991 21.9358C25.7096 21.6268 25.7181 21.3821 25.7252 21.2018C25.7323 21.0213 25.7356 20.8303 25.7356 20.629C25.7356 20.4276 25.7233 20.2697 25.6991 20.1551C25.6752 20.0407 25.6384 19.9296 25.59 19.8219C25.5413 19.7143 25.4701 19.6311 25.3766 19.572C25.2829 19.513 25.1664 19.4661 25.0277 19.4314C24.6598 19.3481 24.1912 19.303 23.6218 19.296C22.3307 19.2822 21.501 19.3656 21.1331 19.5461C20.9873 19.6223 20.8554 19.7265 20.7374 19.8583C20.6125 20.0111 20.595 20.0945 20.6853 20.1082C21.1018 20.1706 21.3968 20.3199 21.5703 20.5559L21.6329 20.681C21.6815 20.7712 21.7301 20.931 21.7787 21.16C21.8273 21.389 21.8586 21.6424 21.8724 21.92C21.907 22.4268 21.907 22.8607 21.8724 23.2216C21.8376 23.5827 21.8048 23.8638 21.7735 24.0651C21.7422 24.2665 21.6953 24.4296 21.6329 24.5545C21.5703 24.6795 21.5287 24.7559 21.5079 24.7836C21.487 24.8113 21.4697 24.8288 21.4559 24.8356C21.3656 24.8702 21.2718 24.8878 21.1747 24.8878C21.0774 24.8878 20.9595 24.8392 20.8206 24.7419C20.6819 24.6447 20.5378 24.5111 20.3885 24.341C20.2393 24.1709 20.0709 23.9331 19.8834 23.6277C19.696 23.3223 19.5016 22.9613 19.3003 22.5448L19.1338 22.2427C19.0296 22.0484 18.8874 21.7654 18.7069 21.3941C18.5263 21.0226 18.3666 20.6633 18.2278 20.3162C18.1724 20.1704 18.089 20.0594 17.978 19.9831L17.9259 19.9517C17.8912 19.924 17.8356 19.8946 17.7593 19.8632C17.6829 19.8319 17.6031 19.8094 17.5198 19.7956L14.6666 19.8163C14.375 19.8163 14.1772 19.8824 14.073 20.0143L14.0313 20.0767C14.0105 20.1115 14 20.167 14 20.2434C14 20.3197 14.0208 20.4135 14.0625 20.5245C14.479 21.5034 14.932 22.4475 15.4214 23.3569C15.9108 24.2663 16.336 24.9988 16.6969 25.5539C17.0579 26.1093 17.4258 26.6335 17.8007 27.1263C18.1756 27.6192 18.4238 27.9351 18.5452 28.0739C18.6668 28.2129 18.7622 28.3168 18.8317 28.3862L19.092 28.6361C19.2586 28.8028 19.5033 29.0023 19.8261 29.2348C20.149 29.4675 20.5065 29.6966 20.8987 29.9224C21.291 30.1478 21.7474 30.3318 22.2681 30.474C22.7887 30.6165 23.2955 30.6736 23.7884 30.646H24.9859C25.2288 30.6251 25.4128 30.5487 25.5379 30.4169L25.5793 30.3647C25.6072 30.3233 25.6333 30.2589 25.6573 30.1723C25.6817 30.0855 25.6938 29.9899 25.6938 29.8859C25.6867 29.5875 25.7094 29.3185 25.7613 29.079C25.8132 28.8396 25.8724 28.6591 25.9386 28.5375C26.0047 28.4161 26.0793 28.3136 26.1624 28.2305C26.2456 28.1472 26.3049 28.0968 26.3397 28.0794C26.3743 28.062 26.4019 28.0501 26.4227 28.043C26.5893 27.9875 26.7854 28.0413 27.0112 28.2045C27.2369 28.3677 27.4485 28.5691 27.6465 28.8085C27.8444 29.0481 28.0821 29.317 28.3597 29.6154C28.6375 29.914 28.8804 30.1359 29.0886 30.2819L29.2968 30.4069C29.4358 30.4903 29.6163 30.5666 29.8385 30.6361C30.0603 30.7054 30.2546 30.7228 30.4215 30.6881L33.0872 30.6465C33.3508 30.6465 33.556 30.6029 33.7015 30.5162C33.8473 30.4295 33.9339 30.3339 33.9619 30.2299C33.9897 30.1258 33.9912 30.0077 33.9672 29.8757C33.9425 29.744 33.9181 29.6519 33.8939 29.5998Z" fill="#1F2A37"/>
</svg>
