<svg width="24" height="25" viewBox="0 0 24 25" fill="none" xmlns="http://www.w3.org/2000/svg">
<g clip-path="url(#clip0_180_553)">
<path d="M6.75 9.39602L10.044 14.007C10.1796 14.1969 10.3569 14.3531 10.5623 14.4637C10.7677 14.5743 10.9958 14.6363 11.2289 14.645C11.462 14.6537 11.694 14.6088 11.9071 14.5138C12.1202 14.4188 12.3086 14.2762 12.458 14.097L23.25 1.14502" stroke="#0C9548" stroke-width="1.5" stroke-linecap="round" stroke-linejoin="round"/>
<path d="M21.75 10.896V20.646C21.75 21.4416 21.4339 22.2047 20.8713 22.7673C20.3087 23.3299 19.5456 23.646 18.75 23.646H3.75C2.95435 23.646 2.19129 23.3299 1.62868 22.7673C1.06607 22.2047 0.75 21.4416 0.75 20.646V5.646C0.75 4.85035 1.06607 4.08728 1.62868 3.52468C2.19129 2.96207 2.95435 2.646 3.75 2.646H16.5" stroke="#0C9548" stroke-width="1.5" stroke-linecap="round" stroke-linejoin="round"/>
</g>
<defs>
<clipPath id="clip0_180_553">
<rect width="24" height="24" fill="white" transform="translate(0 0.395996)"/>
</clipPath>
</defs>
</svg>
