<svg width="15" height="16" viewBox="0 0 15 16" fill="none" xmlns="http://www.w3.org/2000/svg">
<path fill-rule="evenodd" clip-rule="evenodd" d="M6.42857 0.5C2.87817 0.5 0 3.37817 0 6.92857C0 10.479 2.87817 13.3571 6.42857 13.3571C7.94644 13.3571 9.34144 12.8311 10.4412 11.9514L13.7806 15.2908C14.0596 15.5697 14.5118 15.5697 14.7908 15.2908C15.0697 15.0118 15.0697 14.5596 14.7908 14.2806L11.4514 10.9412C12.3311 9.84144 12.8571 8.44644 12.8571 6.92857C12.8571 3.37817 9.97897 0.5 6.42857 0.5ZM6.42857 1.92857C3.66715 1.92857 1.42857 4.16715 1.42857 6.92857C1.42857 9.69 3.66715 11.9286 6.42857 11.9286C9.19 11.9286 11.4286 9.69 11.4286 6.92857C11.4286 4.16715 9.19 1.92857 6.42857 1.92857Z" fill="#090E36"/>
</svg>
